<?xml version="1.0" standalone="no"?>
<!DOCTYPE svg PUBLIC "-//W3C//DTD SVG 20010904//EN"
 "http://www.w3.org/TR/2001/REC-SVG-20010904/DTD/svg10.dtd">
<svg version="1.0" xmlns="http://www.w3.org/2000/svg"
 width="300.000000pt" height="300.000000pt" viewBox="0 0 300.000000 300.000000"
 preserveAspectRatio="xMidYMid meet">
<metadata>
Created by potrace 1.11, written by Peter Selinger 2001-2013
</metadata>
<g transform="translate(0.000000,300.000000) scale(0.100000,-0.100000)"
fill="#000000" stroke="none">
<path d="M1443 2943 c-25 -33 -28 -44 -29 -122 0 -47 3 -99 7 -115 5 -16 11
-53 15 -84 3 -31 7 -63 9 -71 1 -9 -3 -23 -10 -31 -18 -22 -25 -49 -16 -55 15
-8 0 -45 -18 -46 -9 0 -25 -2 -36 -4 -11 -2 -36 -7 -55 -10 -120 -22 -252 -80
-362 -160 -56 -41 -88 -49 -88 -21 0 14 -38 39 -49 32 -11 -7 -57 43 -124 135
-81 112 -119 145 -183 159 -29 7 -39 5 -54 -10 -45 -45 26 -151 165 -247 86
-60 129 -99 121 -112 -4 -7 6 -25 24 -41 l32 -30 -54 -83 c-93 -139 -151 -293
-160 -421 -2 -35 -3 -36 -44 -36 -24 0 -46 -4 -49 -10 -8 -12 -85 -12 -145 0
-25 5 -84 13 -132 16 -77 6 -92 4 -132 -16 -58 -28 -70 -60 -34 -93 14 -12 32
-24 39 -27 29 -10 186 -6 244 6 90 19 141 20 159 4 10 -7 34 -13 55 -12 l38 2
7 -59 c9 -78 38 -179 76 -259 31 -67 106 -184 122 -190 17 -7 7 -40 -17 -56
-15 -10 -25 -26 -25 -40 0 -16 -13 -33 -37 -52 -21 -15 -40 -31 -43 -34 -3 -4
-27 -21 -55 -40 -81 -55 -151 -131 -159 -174 -8 -42 0 -75 17 -77 84 -8 153
47 260 207 32 48 80 96 93 93 15 -4 44 13 44 25 0 6 9 17 20 24 11 7 20 8 20
3 0 -10 117 -90 179 -121 86 -43 195 -77 281 -86 58 -7 74 -18 60 -43 -8 -17
2 -55 17 -64 5 -3 8 -18 7 -34 -3 -48 -16 -138 -20 -144 -8 -14 -15 -154 -9
-186 3 -18 20 -49 36 -68 27 -30 33 -33 51 -22 35 21 60 85 59 146 -2 67 -8
117 -16 151 -3 14 -9 54 -12 89 -4 47 -3 65 8 71 8 6 13 25 12 50 -2 45 -1 46
67 54 88 10 163 33 260 78 66 30 182 104 188 120 7 16 27 8 55 -22 15 -16 33
-27 40 -24 13 5 50 -35 124 -136 70 -96 125 -145 174 -158 58 -15 82 4 73 57
-12 67 -46 106 -189 211 -97 71 -108 83 -110 112 -1 10 -14 27 -28 38 l-27 22
46 61 c87 119 155 285 170 418 l7 59 38 -2 c21 -1 44 4 52 10 8 7 25 12 38 13
29 1 131 -11 141 -17 3 -2 44 -7 91 -10 98 -8 141 3 181 45 l28 29 -29 26
c-53 50 -105 54 -326 25 -82 -11 -102 -11 -120 0 -12 8 -38 13 -58 13 -22 -1
-36 3 -36 11 -6 144 -79 338 -178 469 -43 55 -43 57 -24 74 10 9 19 13 20 8 1
-5 7 9 13 31 11 34 31 54 136 135 91 71 130 107 147 140 46 86 22 128 -61 107
-45 -12 -97 -60 -170 -158 -86 -116 -106 -138 -122 -132 -9 3 -26 -7 -44 -27
l-28 -32 -50 39 c-116 92 -344 180 -474 183 -14 0 -18 8 -16 40 1 21 -5 46
-12 54 -12 15 -10 92 3 151 31 133 24 234 -19 285 -33 39 -47 38 -81 -7z m-22
-700 c1 -5 3 -27 4 -51 2 -24 9 -50 16 -58 16 -19 14 -108 -4 -200 -12 -60
-12 -77 -1 -103 7 -17 9 -31 5 -31 -12 0 -21 -39 -10 -46 17 -10 9 -23 -25
-39 -37 -18 -56 -14 -56 10 0 8 -11 17 -25 21 -14 3 -25 13 -25 21 0 19 -33
49 -105 98 -73 50 -102 80 -121 126 -8 20 -27 47 -41 59 l-27 23 35 29 c51 43
188 108 271 129 82 20 107 22 109 12z m227 -9 c85 -17 237 -86 291 -132 l35
-29 -27 -23 c-14 -12 -32 -39 -40 -59 -16 -40 -69 -93 -137 -137 -56 -36 -90
-69 -90 -86 0 -7 -14 -19 -30 -26 -17 -8 -28 -18 -25 -22 11 -17 -15 -20 -49
-6 -33 14 -35 17 -29 50 3 23 2 36 -5 36 -8 0 -7 10 2 31 9 21 10 44 5 72 -25
123 -30 194 -15 222 14 28 18 44 18 88 1 20 5 37 10 37 5 0 44 -7 86 -16z
m-706 -272 c16 -22 63 -52 81 -52 17 0 54 -41 107 -119 43 -62 83 -101 105
-101 7 0 12 -8 11 -17 0 -10 9 -22 22 -28 25 -11 26 -19 11 -63 -10 -29 -26
-37 -39 -20 -8 10 -50 -2 -50 -13 0 -5 -10 -3 -22 5 -24 15 -73 14 -151 -4
-65 -15 -144 -12 -172 6 -14 9 -35 14 -48 11 -39 -10 -50 5 -42 59 9 62 43
169 68 214 49 90 85 140 99 140 4 0 13 -8 20 -18z m1166 -39 c52 -78 90 -167
109 -257 20 -90 15 -106 -27 -100 -17 3 -44 -2 -62 -10 -37 -19 -92 -20 -174
-5 -93 18 -117 18 -141 3 -15 -9 -23 -10 -25 -2 -5 15 -39 19 -54 7 -13 -10
-17 -6 -41 38 -10 19 -7 25 20 47 17 14 28 29 24 32 -4 4 8 14 25 23 18 9 55
48 83 87 63 89 80 105 135 133 24 13 51 32 58 42 7 10 17 19 22 19 5 0 27 -26
48 -57z m-545 -354 c30 -32 33 -71 9 -116 -24 -43 -112 -55 -148 -19 -37 37
-40 101 -7 138 41 46 104 44 146 -3z m-505 -120 c49 -10 69 -11 94 -1 20 7 34
8 38 2 3 -5 22 -7 43 -4 33 4 38 1 52 -27 13 -24 14 -34 4 -45 -6 -7 -15 -12
-19 -9 -8 5 -24 -23 -22 -36 1 -4 -12 -13 -29 -19 -18 -8 -47 -37 -72 -74 -56
-83 -116 -146 -138 -146 -10 0 -35 -14 -54 -32 -20 -17 -40 -27 -43 -22 -72
98 -126 204 -138 273 -3 14 -7 28 -10 33 -3 5 -8 29 -11 55 -5 46 -5 46 24 41
16 -3 45 2 68 12 45 21 112 20 213 -1z m1060 7 c8 -12 30 -17 81 -17 33 0 33
0 28 -37 -20 -127 -76 -261 -151 -355 -14 -19 -46 -14 -46 7 0 13 -41 36 -64
36 -18 0 -85 74 -131 144 -21 30 -50 61 -66 68 -16 7 -29 18 -29 25 0 6 -13
22 -30 35 -28 22 -29 25 -18 56 12 30 15 32 50 28 21 -2 40 -1 43 4 2 4 22 3
42 -3 28 -7 57 -6 108 5 84 18 173 20 183 4z m-687 -168 c4 -6 4 -28 2 -49 -4
-27 -2 -39 7 -39 10 0 10 -3 1 -14 -16 -19 -16 -80 -2 -134 15 -55 19 -171 6
-180 -11 -8 -16 -24 -20 -67 -2 -16 -3 -33 -4 -36 -2 -11 -131 20 -204 47 -38
15 -100 47 -138 73 -66 43 -69 47 -51 61 28 23 55 68 47 80 -3 5 1 10 10 10 9
0 14 4 10 10 -6 9 48 55 139 118 26 18 52 45 59 60 7 15 18 27 26 27 8 0 19 9
25 20 6 11 16 23 21 28 12 9 58 -1 66 -15z m202 -10 c15 -17 30 -29 33 -25 4
4 14 -8 23 -26 9 -17 39 -48 68 -68 97 -67 126 -94 143 -135 10 -23 28 -51 40
-62 28 -26 22 -35 -51 -82 -92 -59 -183 -93 -291 -107 l-46 -6 0 34 c1 41 -4
62 -16 71 -14 10 -13 98 2 163 16 72 17 132 2 150 -8 10 -8 15 1 20 6 5 9 21
6 40 -6 35 0 49 23 58 28 10 37 7 63 -25z"/>
</g>
</svg>
