<?xml version="1.0" standalone="no"?>
<!DOCTYPE svg PUBLIC "-//W3C//DTD SVG 20010904//EN"
 "http://www.w3.org/TR/2001/REC-SVG-20010904/DTD/svg10.dtd">
<svg version="1.0" xmlns="http://www.w3.org/2000/svg"
 width="300.000000pt" height="300.000000pt" viewBox="0 0 300.000000 300.000000"
 preserveAspectRatio="xMidYMid meet">
<metadata>
Created by potrace 1.11, written by Peter Selinger 2001-2013
</metadata>
<g transform="translate(0.000000,300.000000) scale(0.100000,-0.100000)"
fill="#000000" stroke="none">
<path d="M1473 2945 c-12 -8 -29 -35 -38 -60 -18 -47 -17 -128 5 -247 14 -77
18 -138 8 -138 -13 0 -27 -44 -18 -53 18 -20 -4 -53 -32 -48 -16 2 -146 -29
-202 -49 -78 -26 -200 -93 -254 -137 l-44 -36 -24 27 c-22 23 -37 31 -48 24
-9 -6 -53 42 -116 128 -102 136 -142 171 -207 176 -39 3 -53 -8 -53 -41 0 -72
39 -116 230 -259 46 -34 65 -56 66 -72 1 -13 14 -34 30 -47 21 -17 26 -26 19
-36 -55 -72 -121 -187 -146 -252 -33 -84 -61 -201 -61 -247 1 -26 -2 -28 -36
-27 -20 1 -50 -6 -66 -14 -16 -8 -34 -14 -40 -12 -6 2 -31 7 -56 10 -25 3 -56
8 -70 10 -14 2 -62 7 -107 11 -72 6 -87 4 -127 -16 -57 -27 -70 -60 -35 -90
41 -33 87 -43 173 -37 77 6 92 8 159 23 46 10 96 7 113 -7 8 -7 33 -12 54 -11
37 2 40 0 41 -26 3 -123 79 -322 172 -449 l45 -61 -33 -28 c-18 -15 -31 -33
-28 -40 6 -16 -38 -57 -115 -111 -31 -21 -81 -63 -113 -94 -49 -48 -58 -63
-64 -103 -9 -55 1 -69 44 -68 60 1 103 35 184 142 87 115 129 161 142 156 15
-6 76 49 67 60 -4 4 16 -9 43 -29 130 -96 269 -157 408 -178 101 -16 98 -15
88 -41 -9 -25 2 -68 18 -68 5 0 8 -10 6 -22 -2 -13 -6 -45 -9 -73 -3 -27 -8
-61 -11 -75 -12 -58 -15 -188 -5 -216 6 -16 23 -41 37 -56 24 -25 27 -26 48
-12 42 28 58 83 52 181 -3 48 -8 99 -12 113 -15 63 -18 152 -5 160 7 5 12 26
12 52 -1 29 3 45 11 45 87 2 220 38 322 87 71 33 177 101 183 118 7 16 27 8
55 -22 15 -16 34 -27 41 -24 17 6 141 -145 131 -160 -3 -3 -2 -4 1 -1 4 2 25
-18 46 -46 81 -100 208 -126 194 -39 -11 68 -63 132 -160 197 -75 50 -145 114
-140 127 3 7 -9 26 -25 42 l-30 29 45 60 c59 78 120 205 149 308 27 98 25 89
25 132 0 34 1 35 40 33 21 -1 47 5 56 13 20 16 61 14 189 -10 81 -16 208 -9
229 12 10 9 21 17 26 17 5 0 12 9 15 21 9 27 -25 64 -73 80 -33 11 -148 7
-212 -6 -69 -15 -160 -17 -175 -5 -9 7 -33 13 -54 12 l-38 -2 -6 58 c-9 76
-11 85 -42 177 -30 90 -80 185 -136 255 l-38 48 30 26 c16 14 29 34 29 44 0
18 63 82 80 82 5 0 10 3 12 8 2 4 28 25 58 48 111 83 150 135 150 199 0 35
-35 48 -86 32 -46 -14 -103 -69 -181 -175 -70 -96 -94 -121 -108 -115 -7 2
-26 -11 -43 -28 l-32 -33 -27 25 c-109 99 -345 193 -497 198 -16 1 -18 7 -13
35 3 22 0 42 -10 56 -12 17 -14 37 -9 92 3 38 8 73 10 76 7 12 17 106 17 161
0 44 -5 62 -28 94 -33 48 -42 52 -70 32z m-41 -727 c0 -7 2 -24 4 -38 3 -29 8
-47 19 -74 14 -33 9 -116 -14 -211 -12 -48 -12 -43 4 -82 8 -18 10 -33 6 -33
-12 0 -21 -39 -10 -46 17 -10 9 -23 -22 -39 -31 -16 -65 -13 -55 4 4 5 -7 15
-22 22 -16 7 -34 25 -41 40 -6 15 -42 47 -80 72 -81 55 -131 104 -131 129 0
10 -4 18 -10 18 -5 0 -10 6 -10 13 0 7 -12 24 -27 37 l-27 23 35 29 c50 42
183 105 269 128 90 23 109 24 112 8z m286 -20 c79 -24 160 -64 220 -107 37
-27 41 -34 32 -51 -6 -11 -16 -20 -23 -20 -12 0 -37 -44 -37 -65 0 -18 -56
-70 -130 -121 -39 -26 -75 -60 -82 -75 -7 -15 -23 -31 -35 -34 -13 -3 -23 -12
-23 -20 0 -23 -17 -27 -54 -11 -33 14 -35 17 -29 50 4 24 2 36 -6 36 -9 0 -9
5 0 21 6 12 11 36 10 53 0 30 -3 45 -16 96 -12 47 -13 135 -2 155 15 27 19 45
18 75 -1 46 6 51 50 45 22 -4 71 -15 107 -27z m-758 -266 c0 -9 57 -42 72 -42
14 0 92 -84 109 -118 18 -36 84 -102 102 -102 8 0 14 -8 13 -17 0 -10 9 -22
22 -28 19 -8 22 -15 17 -40 -7 -37 -32 -65 -43 -48 -9 14 -44 11 -49 -4 -3 -8
-13 -7 -31 2 -26 14 -54 13 -142 -6 -62 -14 -151 -13 -160 2 -4 6 -30 12 -56
13 -45 2 -49 5 -52 29 -8 64 59 242 129 344 26 37 33 42 50 33 10 -6 19 -14
19 -18z m1187 -76 c44 -75 89 -211 88 -267 l0 -42 -49 -3 c-27 -1 -52 -7 -56
-14 -9 -15 -127 -11 -193 6 -48 12 -70 12 -119 -1 -16 -4 -28 -3 -28 2 0 13
-32 13 -48 0 -15 -11 -14 -12 -35 30 -15 32 -15 33 14 54 18 12 28 27 25 35
-3 9 1 14 12 14 21 0 56 35 99 100 44 64 69 91 78 82 5 -4 5 -2 2 4 -8 14 9
29 43 37 14 4 40 20 59 38 l35 31 19 -23 c10 -12 34 -50 54 -83z m-580 -299
c31 -28 38 -69 18 -110 -35 -75 -135 -75 -170 -1 -47 99 71 185 152 111z
m-500 -127 c52 -9 79 -10 102 -2 17 6 33 7 36 2 3 -5 21 -7 40 -4 30 4 36 0
50 -26 17 -32 13 -50 -10 -50 -12 0 -30 -27 -27 -42 1 -4 -13 -14 -31 -21 -20
-9 -46 -36 -71 -73 -52 -78 -116 -144 -138 -144 -10 0 -32 -13 -49 -29 -36
-35 -46 -33 -78 17 -70 107 -112 211 -126 310 l-7 51 34 -1 c18 0 49 6 68 14
40 17 102 17 207 -2z m1073 1 c13 -8 42 -13 63 -13 l38 2 -6 -47 c-6 -53 -15
-93 -24 -108 -3 -5 -6 -16 -8 -24 -4 -31 -73 -158 -106 -196 l-34 -39 -23 27
c-13 15 -30 27 -37 27 -7 0 -13 5 -13 11 0 5 -5 7 -11 3 -15 -9 -73 50 -130
132 -33 50 -58 75 -79 82 -17 6 -30 15 -29 19 4 16 -13 43 -26 43 -22 0 -25
15 -13 48 12 30 15 32 55 28 24 -2 43 0 43 4 0 4 17 3 38 -3 27 -7 56 -5 107
5 87 18 162 17 195 -1z m-712 -157 c23 -16 29 -40 12 -46 -6 -2 -4 -14 4 -30
8 -15 10 -30 5 -35 -13 -13 -17 -55 -7 -88 21 -73 28 -212 12 -223 -13 -10
-18 -32 -17 -69 2 -39 -10 -41 -112 -18 -80 19 -161 54 -237 103 -59 38 -69
55 -43 69 8 5 27 33 42 63 23 45 44 66 113 115 49 36 92 75 101 93 9 17 19 29
22 26 3 -3 16 3 28 15 13 12 19 21 13 21 -12 0 18 20 31 20 6 0 21 -7 33 -16z
m200 7 c8 -4 13 -11 12 -15 -1 -9 28 -38 35 -34 3 2 14 -11 24 -29 11 -17 47
-50 80 -72 82 -56 117 -90 134 -132 8 -20 25 -46 38 -58 l24 -23 -34 -28 c-73
-61 -226 -125 -326 -136 l-54 -6 2 33 c1 38 -4 61 -16 70 -4 3 -9 25 -11 48
-3 39 1 70 21 166 8 40 5 72 -7 96 -10 17 -7 22 10 21 3 0 5 11 5 24 0 13 -4
24 -8 24 -20 0 0 45 23 51 35 10 33 10 48 0z"/>
</g>
</svg>
